<?xml version="1.0" encoding="UTF-8" standalone="no"?>
<svg
   xmlns:dc="http://purl.org/dc/elements/1.1/"
   xmlns:cc="http://creativecommons.org/ns#"
   xmlns:rdf="http://www.w3.org/1999/02/22-rdf-syntax-ns#"
   xmlns:svg="http://www.w3.org/2000/svg"
   xmlns="http://www.w3.org/2000/svg"
   xmlns:sodipodi="http://sodipodi.sourceforge.net/DTD/sodipodi-0.dtd"
   xmlns:inkscape="http://www.inkscape.org/namespaces/inkscape"
   viewBox="-52 -53 100 100"
   stroke-width="2"
   version="1.1"
   id="svg6105"
   sodipodi:docname="atom.svg"
   inkscape:version="0.92.4 (5da689c313, 2019-01-14)">
  <metadata
     id="metadata6111">
    <rdf:RDF>
      <cc:Work
         rdf:about="">
        <dc:format>image/svg+xml</dc:format>
        <dc:type
           rdf:resource="http://purl.org/dc/dcmitype/StillImage" />
      </cc:Work>
    </rdf:RDF>
  </metadata>
  <defs
     id="defs6109" />
  <sodipodi:namedview
     pagecolor="#ffffff"
     bordercolor="#666666"
     borderopacity="1"
     objecttolerance="10"
     gridtolerance="10"
     guidetolerance="10"
     inkscape:pageopacity="0"
     inkscape:pageshadow="2"
     inkscape:window-width="1920"
     inkscape:window-height="1017"
     id="namedview6107"
     showgrid="false"
     inkscape:zoom="2.36"
     inkscape:cx="50"
     inkscape:cy="50"
     inkscape:window-x="-8"
     inkscape:window-y="-8"
     inkscape:window-maximized="1"
     inkscape:current-layer="svg6105" />
  <g
     fill="none"
     id="g6093">
    <path
       style="stroke:#66899a"
       d="M 6,0 A 6,44 0 0 1 0,44 6,44 0 0 1 -6,0 6,44 0 0 1 0,-44 6,44 0 0 1 6,0 Z"
       id="ellipse6085" />
    <path
       transform="rotate(-66)"
       style="stroke:#e1d85d"
       d="M 6,0 A 6,44 0 0 1 0,44 6,44 0 0 1 -6,0 6,44 0 0 1 0,-44 6,44 0 0 1 6,0 Z"
       id="ellipse6087" />
    <path
       transform="rotate(66)"
       style="stroke:#80a3cf"
       d="M 6,0 A 6,44 0 0 1 0,44 6,44 0 0 1 -6,0 6,44 0 0 1 0,-44 6,44 0 0 1 6,0 Z"
       id="ellipse6089" />
    <path
       style="stroke:#4b541f"
       d="M 44,0 A 44,44 0 0 1 0,44 44,44 0 0 1 -44,0 44,44 0 0 1 0,-44 44,44 0 0 1 44,0 Z"
       id="circle6091" />
  </g>
  <g
     id="g6103"
     stroke="white"
     fill="#66899a">
    <path
       style="fill:#80a3cf"
       d="M 13,0 A 13,13 0 0 1 0,13 13,13 0 0 1 -13,0 13,13 0 0 1 0,-13 13,13 0 0 1 13,0 Z"
       id="circle6095" />
    <path
       style=""
       d="m 9,-44 a 9,9 0 0 1 -9,9 9,9 0 0 1 -9,-9 9,9 0 0 1 9,-9 9,9 0 0 1 9,9 z"
       id="circle6097" />
    <path
       style=""
       d="m -31,18 a 9,9 0 0 1 -9,9 9,9 0 0 1 -9,-9 9,9 0 0 1 9,-9 9,9 0 0 1 9,9 z"
       id="circle6099" />
    <path
       style=""
       d="m 49,18 a 9,9 0 0 1 -9,9 9,9 0 0 1 -9,-9 9,9 0 0 1 9,-9 9,9 0 0 1 9,9 z"
       id="circle6101" />
  </g>
</svg>
