<?xml version="1.0" encoding="UTF-8" standalone="no"?>
<!-- Created with Inkscape (http://www.inkscape.org/) -->

<svg
   xmlns:dc="http://purl.org/dc/elements/1.1/"
   xmlns:cc="http://creativecommons.org/ns#"
   xmlns:rdf="http://www.w3.org/1999/02/22-rdf-syntax-ns#"
   xmlns:svg="http://www.w3.org/2000/svg"
   xmlns="http://www.w3.org/2000/svg"
   xmlns:sodipodi="http://sodipodi.sourceforge.net/DTD/sodipodi-0.dtd"
   xmlns:inkscape="http://www.inkscape.org/namespaces/inkscape"
   width="69.370445mm"
   height="15.947347mm"
   viewBox="0 0 69.370445 15.947347"
   version="1.1"
   id="svg8"
   inkscape:version="0.92.4 (5da689c313, 2019-01-14)"
   sodipodi:docname="test.svg">
  <defs
     id="defs2" />
  <sodipodi:namedview
     id="base"
     pagecolor="#ffffff"
     bordercolor="#666666"
     borderopacity="1.0"
     inkscape:pageopacity="0.0"
     inkscape:pageshadow="2"
     inkscape:zoom="1.6105397"
     inkscape:cx="249.1682"
     inkscape:cy="-7.1151019"
     inkscape:document-units="mm"
     inkscape:current-layer="layer1"
     showgrid="false"
     inkscape:window-width="1920"
     inkscape:window-height="1017"
     inkscape:window-x="-8"
     inkscape:window-y="-8"
     inkscape:window-maximized="1" />
  <metadata
     id="metadata5">
    <rdf:RDF>
      <cc:Work
         rdf:about="">
        <dc:format>image/svg+xml</dc:format>
        <dc:type
           rdf:resource="http://purl.org/dc/dcmitype/StillImage" />
        <dc:title></dc:title>
      </cc:Work>
    </rdf:RDF>
  </metadata>
  <g
     inkscape:label="Layer 1"
     inkscape:groupmode="layer"
     id="layer1"
     transform="translate(-32.999277,-29.255604)">
    <g
       aria-label="SALAM"
       transform="scale(0.26458333)"
       style="font-style:italic;font-variant:normal;font-weight:normal;font-stretch:normal;font-size:24px;line-height:1.25;font-family:sans-serif;-inkscape-font-specification:'sans-serif, Italic';font-variant-ligatures:normal;font-variant-caps:normal;font-variant-numeric:normal;font-feature-settings:normal;text-align:center;letter-spacing:0px;word-spacing:0px;writing-mode:lr-tb;text-anchor:middle;fill:#000000;fill-opacity:1;stroke:none"
       id="flowRoot815">
      <path
         d="m 169.56543,153.18955 q 0,3.39844 -1.60156,6.71875 -1.5625,3.32031 -4.41407,5.625 -3.125,2.5 -7.30468,3.90625 -4.14063,1.40625 -10,1.40625 -6.28907,0 -11.32813,-1.17187 -5,-1.17188 -10.19531,-3.47657 v -9.6875 h 0.54687 q 4.41407,3.67188 10.19532,5.66407 5.78125,1.99218 10.85937,1.99218 7.1875,0 11.17188,-2.69531 4.02343,-2.69531 4.02343,-7.1875 0,-3.86719 -1.91406,-5.70312 -1.875,-1.83594 -5.74219,-2.85157 -2.92968,-0.78125 -6.36718,-1.28906 -3.39844,-0.50781 -7.22657,-1.28906 -7.73437,-1.64063 -11.48437,-5.58594 -3.71094,-3.98437 -3.71094,-10.35156 0,-7.30469 6.17188,-11.95313 6.17187,-4.6875 15.66406,-4.6875 6.13281,0 11.25,1.17188 5.11719,1.17187 9.0625,2.89062 v 9.14063 h -0.54688 q -3.32031,-2.8125 -8.75,-4.64844 -5.39062,-1.875 -11.05468,-1.875 -6.21094,0 -10,2.57813 -3.75,2.57812 -3.75,6.64062 0,3.63281 1.875,5.70313 1.875,2.07031 6.60156,3.16406 2.5,0.54687 7.10937,1.32812 4.60938,0.78125 7.8125,1.60157 6.48438,1.71875 9.76563,5.19531 3.28125,3.47656 3.28125,9.72656 z"
         style="font-style:normal;font-variant:normal;font-weight:normal;font-stretch:normal;font-size:80px;font-family:sans-serif;-inkscape-font-specification:'sans-serif, Normal';font-variant-ligatures:normal;font-variant-caps:normal;font-variant-numeric:normal;font-feature-settings:normal;text-align:center;writing-mode:lr-tb;text-anchor:middle"
         id="path823" />
      <path
         d="m 227.06543,169.79111 h -8.24219 l -5.70312,-16.21093 h -25.15625 l -5.70313,16.21093 h -7.85156 l 21.17187,-58.16406 h 10.3125 z m -16.32813,-22.85156 -10.19531,-28.55469 -10.23437,28.55469 z"
         style="font-style:normal;font-variant:normal;font-weight:normal;font-stretch:normal;font-size:80px;font-family:sans-serif;-inkscape-font-specification:'sans-serif, Normal';font-variant-ligatures:normal;font-variant-caps:normal;font-variant-numeric:normal;font-feature-settings:normal;text-align:center;writing-mode:lr-tb;text-anchor:middle"
         id="path825" />
      <path
         d="m 272.69043,169.79111 h -36.79688 v -58.16406 h 7.73438 v 51.28906 h 29.0625 z"
         style="font-style:normal;font-variant:normal;font-weight:normal;font-stretch:normal;font-size:80px;font-family:sans-serif;-inkscape-font-specification:'sans-serif, Normal';font-variant-ligatures:normal;font-variant-caps:normal;font-variant-numeric:normal;font-feature-settings:normal;text-align:center;writing-mode:lr-tb;text-anchor:middle"
         id="path827" />
      <path
         d="m 326.28418,169.79111 h -8.24219 l -5.70312,-16.21093 h -25.15625 l -5.70313,16.21093 h -7.85156 l 21.17187,-58.16406 h 10.3125 z m -16.32813,-22.85156 -10.19531,-28.55469 -10.23437,28.55469 z"
         style="font-style:normal;font-variant:normal;font-weight:normal;font-stretch:normal;font-size:80px;font-family:sans-serif;-inkscape-font-specification:'sans-serif, Normal';font-variant-ligatures:normal;font-variant-caps:normal;font-variant-numeric:normal;font-feature-settings:normal;text-align:center;writing-mode:lr-tb;text-anchor:middle"
         id="path829" />
      <path
         d="m 386.90918,169.79111 h -7.73438 v -50.11718 l -16.17187,34.10156 h -4.60938 l -16.05468,-34.10156 v 50.11718 h -7.22657 v -58.16406 h 10.54688 l 15.50781,32.38281 15,-32.38281 h 10.74219 z"
         style="font-style:normal;font-variant:normal;font-weight:normal;font-stretch:normal;font-size:80px;font-family:sans-serif;-inkscape-font-specification:'sans-serif, Normal';font-variant-ligatures:normal;font-variant-caps:normal;font-variant-numeric:normal;font-feature-settings:normal;text-align:center;writing-mode:lr-tb;text-anchor:middle"
         id="path831" />
    </g>
  </g>
</svg>
